<svg fill="none" height="64" viewBox="0 0 64 64" width="64" xmlns="http://www.w3.org/2000/svg"><g fill="#fff"><path d="m19.5418 20.0014c1.1383 2.3019 2.796 4.1883 4.9731 5.6768 2.1755 1.4884 3.7509 2.3019 6.3617 2.4404v22.8116c-4.0834-.1903-6.7474-2.025-9.6274-5.4693-.6686.5366-1.104 1.0385-1.3046 1.5231.8692 1.0039.8365 2.0595-.1012 3.1326-1.0714 1.2289-2.2097 1.2981-3.4148.2077-1.2052-1.0731-1.272-2.2327-.2006-3.4442l.3001-.3114.2022-.104c.4012-1.35 1.3045-2.5615 2.712-3.6346-1.6749-2.9076-2.6451-5.9539-2.9142-9.1385-.1337 0-.7029.104-1.7075.3117-.1337 1.5577-.9377 2.3365-2.4103 2.3365-.6703 0-1.2394-.2424-1.7074-.727-.468-.4673-.7029-1.0385-.7029-1.7135s.2349-1.2461.7029-1.7308c.468-.4673 1.0371-.7094 1.7074-.7094h.3018l1.2051-.606c.9377-.2769 1.7742-.398 2.5114-.398.0668-2.1635.5023-4.3614 1.3063-6.5941-.804-.5366-1.3063-.9174-1.5069-1.1251-.5366-.398-1.0046-1.0384-1.4074-1.9211-.1337 0-.2675-.0692-.4012-.2077-1.3388-.675-1.6405-1.7828-.9034-3.3405.6686-1.35 1.7743-1.6615 3.3137-.9173 1.272.7442 1.608 1.8001 1.0046 3.1501.0669.1385.1337.2943.2006.502l.2022.3114c.0669.0693.2006.1558.4012.2424.2006.1038.3343.1904.4011.2596.0669-.1385.151-.2769.2521-.398.0994-.1385.1834-.2769.2503-.4154zm33.0479 11.4577c.6686 0 1.2378.2421 1.7075.7094.468.4847.7028 1.0558.7028 1.7308s-.2348 1.2462-.7028 1.7135c-.4697.4846-1.0389.727-1.7075.727-1.4743 0-2.2783-.7788-2.412-2.3365-1.0045-.2077-1.5736-.3117-1.7074-.3117-.2674 3.1846-1.2377 6.2309-2.9126 9.1385 1.4057 1.0731 2.3109 2.2846 2.7121 3.6346.0668 0 .1337.0347.2005.104l.3017.3114c1.0714 1.2115 1.0046 2.3711-.2006 3.4442-1.2051 1.0904-2.3434 1.0212-3.4148-.2077-.9378-1.0731-.972-2.1287-.1011-3.1326-.2006-.4846-.6361-.9865-1.3063-1.5231-2.8783 3.4443-7.0561 5.279-11.1412 5.4693v-22.8116c2.6108-.1385 5.7017-.952 7.8772-2.4404 2.1771-1.4885 3.8332-3.3749 4.9714-5.6768.0686.1385.1509.2769.252.4154.1011.1211.1834.2595.2503.398.0668-.0692.2022-.1558.4028-.2596.2006-.0866.3343-.1731.4012-.2424l.2005-.3114c.0669-.2077.1337-.3635.2023-.502-.6034-1.35-.2691-2.4059 1.0029-3.1501 1.5411-.7442 2.6452-.4327 3.3155.9173.7371 1.5577.4353 2.6655-.9035 3.3405-.1338.1385-.2692.2077-.4029.2077-.4011.8827-.8691 1.5231-1.4057 1.9211-.2006.2077-.7028.5885-1.5068 1.1251.804 2.2327 1.2394 4.4306 1.3062 6.5941.7372 0 1.5738.1211 2.5115.398l1.2051.606z"/><path d="m44.4543 18.3864c-.6035 1.627-1.5412 3.0808-2.8132 4.3616-2.4771 2.5096-5.5252 3.7559-9.1406 3.7559-3.6171 0-6.6634-1.2463-9.1405-3.7559-1.272-1.2808-2.2097-2.7346-2.8131-4.3616 3.1474-4.2577 7.1313-6.3864 11.9536-6.3864 4.8206 0 8.8063 2.1287 11.9538 6.3864z" fill-opacity=".7"/></g></svg>